<?xml version="1.0" encoding="UTF-8"?>
<svg id="Capa_2" data-name="Capa 2" xmlns="http://www.w3.org/2000/svg" viewBox="0 0 63.61 78.46">
  <defs>
    <style>
      .cls-1 {
        fill: #f9fafc;
        opacity: .14;
      }

      .cls-2, .cls-3 {
        fill: #fafbfd;
      }

      .cls-4 {
        fill: none;
        stroke: #fafbfd;
        stroke-miterlimit: 10;
        stroke-width: .48px;
      }

      .cls-3 {
        opacity: .47;
      }

      .cls-5 {
        fill: #fefdfd;
      }
    </style>
  </defs>
  <g id="OBJECTS">
    <g>
      <g>
        <path class="cls-3" d="M47.06,3.87C32.47-4.1,14.19.62,5.28,14.59-3.62,28.54-.24,47.16,13.27,57.05c-1.07.53-1.91,1.11-2.49,2.08l-.71,1.7c-.48.8-.35,1.86-.58,2.62-.64.55-1.59,1.02-2.05,1.8l-2.9,4.89c-1.5,2.52-.32,5.77,2.13,7.13,2.53,1.4,5.68.59,7.24-1.99l2.34-3.88c.6-.99.84-2.16.96-3.3,1.01-.69,1.87-1.45,2.55-2.58l.3-1.04c.62-1.04.6-2.17.56-3.43,15.76,5.95,33.11-1.34,39.99-16.33,6.92-15.07.95-32.93-13.53-40.85ZM34.03,57.54c-14.26,1.17-26.81-9.4-28.09-23.68C4.65,19.6,15.23,6.8,29.73,5.59c14.47-1.21,27.02,9.6,28.15,23.89,1.14,14.32-9.52,26.89-23.86,28.07Z"/>
        <path class="cls-4" d="M46.96,4.14C32.37-3.84,14.09.89,5.18,14.86-3.72,28.81-.34,47.43,13.17,57.31c-1.07.53-1.91,1.11-2.49,2.08l-.71,1.7c-.48.8-.35,1.86-.58,2.62-.64.55-1.59,1.02-2.05,1.8l-2.9,4.89c-1.5,2.52-.32,5.77,2.13,7.13,2.53,1.4,5.68.59,7.24-1.99l2.34-3.88c.6-.99.84-2.16.96-3.3,1.01-.69,1.87-1.45,2.55-2.58l.3-1.04c.62-1.04.6-2.17.56-3.43,15.76,5.95,33.11-1.34,39.99-16.33,6.92-15.07.95-32.93-13.53-40.85Z"/>
        <path class="cls-4" d="M3.44,73.51c.47.69,1.1,1.29,1.85,1.7,2.53,1.4,5.68.59,7.24-1.99l2.34-3.88c.6-.99.84-2.16.96-3.3,1.01-.69,1.87-1.45,2.55-2.58l.3-1.04c.62-1.04.6-2.17.56-3.43,15.76,5.95,33.11-1.34,39.99-16.33,4.11-8.95,3.67-18.89-.4-27.14"/>
        <path class="cls-2" d="M16.23,68.22h0c-.32.56-1.05.76-1.61.43l-4.4-2.54c-.56-.32-.76-1.05-.43-1.61.32-.56,1.05-.76,1.61-.43l4.4,2.54c.56.32.76,1.05.43,1.61Z"/>
        <path class="cls-4" d="M33.93,57.81c-14.26,1.17-26.81-9.4-28.09-23.68C4.55,19.86,15.13,7.07,29.63,5.86c14.47-1.21,27.02,9.6,28.15,23.89,1.14,14.32-9.52,26.89-23.86,28.07Z"/>
        <path class="cls-3" d="M41.92,48.13c-3.93,3.7-8.72,5.91-13.76,6.8,3.7.38,7.05-.22,10.43-1.3,5.74-1.84,10.26-5.67,13.24-10.77,4.91-8.39,3.96-17.98-1.55-25.76,4.15,11.02-.09,23.24-8.36,31.03Z"/>
        <path class="cls-2" d="M58.6,15.55c4.04,8.24,4.47,18.15.37,27.09-6.88,14.99-24.23,22.27-39.99,16.33.04,1.25.06,2.39-.56,3.43l-.3,1.04c-.68,1.13-1.53,1.89-2.55,2.58-.12,1.14-.36,2.31-.96,3.3l-2.34,3.88c-1.56,2.58-4.71,3.39-7.24,1.99-.51-.28-.96-.66-1.35-1.08.37,1.41,1.31,2.68,2.62,3.41,2.53,1.4,5.68.59,7.24-1.99l2.34-3.88c.6-.99.84-2.16.96-3.3,1.01-.69,1.87-1.45,2.55-2.58l.3-1.04c.62-1.04.6-2.17.56-3.43,15.76,5.95,33.11-1.34,39.99-16.33,4.49-9.79,3.54-20.76-1.64-29.41Z"/>
        <path class="cls-1" d="M29.09,5.8c-14.5,1.21-25.08,14.01-23.8,28.27,1.28,14.29,13.83,24.85,28.09,23.68,14.34-1.18,24.99-13.74,23.86-28.07-1.14-14.29-13.68-25.1-28.15-23.89Z"/>
      </g>
      <g>
        <path class="cls-5" d="M51.52,24.32c-.05,1.73-2.57,1.73-2.62,0,.05-1.73,2.57-1.73,2.62,0Z"/>
        <g>
          <path class="cls-5" d="M47.73,35.22c.02.84.08,1.89-.34,2.77-.3.63-1.73.48-2-.1s-.33-1.2-.3-1.68c.09-1.84.26-3.76-.31-5.68-.18-.62-1.52-.76-2.03-.33-.55.47-1.41,1.58-1.12,2.29-.07,1.7.19,3.41-.12,5.27-.12.74-1.96.92-2.16.25-.59-1.97.2-4.06-.48-6.83-.2-.83-.67-1.13-1.43-1.24-1.08-.17-1.04.48-1.49.95-.54.55-.6.7-.63,1.53-.11,3.16.44,6.05-1.33,5.98-.83-.03-1.42-.51-1.3-1.54-.07-2.96-.25-5.91.18-8.87.21-1.32,1.87-.14,2.54-.25,1.8-.3,4.15-.69,5.11,1.43,2.58-3.36,7.11-1.58,7.13,2.38,0,0,.07,3.69.07,3.69Z"/>
          <path class="cls-5" d="M31.64,29.99c-.15,2.6.22,5.27-.2,7.64-.27,1.52-2.06.24-2.81.38-3.13.59-6.54-.46-7.3-4.04-.58-2.7,1.11-5.75,4.11-6.5,1.33-.34,2.5.5,3.57.49.44-.15.79-.81,1.25-.71.41.08,1.05.1,1.23.66.23.73.07,1.45.16,2.09ZM29.13,32.8c0-1.52-1.23-2.75-2.75-2.75-3.65.14-3.65,5.36,0,5.5,1.52,0,2.75-1.23,2.75-2.75Z"/>
          <path class="cls-5" d="M13.89,32.37c-.24,1.52.52,2.77,1.66,3.25,2.73,1.14,3.55-2.14,4.89-1.39.44.25.82.95.48,1.64-1.03,2.1-3.83,3.2-6.26,2.25-3.13-1.23-4.22-5.4-2.54-8.21,1.78-3.18,6.51-3.52,8.44-.43.38.63.3,1.26-.34,1.71-1.4,1-1.67-1.87-4.49-1.1-.8.22-1.66,1.06-1.86,2.28Z"/>
          <path class="cls-5" d="M51.06,38.07c-.34.05-.69.09-1.04.1l-.67-.06c-.44-1.03-.55-2.31-.55-3.43,0-1.54.36-3.14.08-4.7.41-.25.18-.85.16-1.25-.15-.91.21-1.43,1.16-1.39.77.03,1.3.38,1.22,1.37-.27,3.23.34,6.39-.37,9.35Z"/>
        </g>
      </g>
    </g>
  </g>
</svg>