<?xml version="1.0" encoding="UTF-8"?>
<svg id="Capa_2" data-name="Capa 2" xmlns="http://www.w3.org/2000/svg" viewBox="0 0 94.42 94.42">
  <defs>
    <style>
      .cls-1 {
        fill: none;
        stroke: #2bff88;
        stroke-miterlimit: 10;
        stroke-width: 2px;
      }

      .cls-2 {
        fill: #2bff88;
      }
    </style>
  </defs>
  <g id="OBJECTS">
    <path class="cls-1" d="M47.21,93.42C21.73,93.42,1,72.69,1,47.21S21.73,1,47.21,1s46.21,20.73,46.21,46.21-20.73,46.21-46.21,46.21ZM47.21,1.5C22.01,1.5,1.5,22.01,1.5,47.21s20.51,45.71,45.71,45.71,45.71-20.51,45.71-45.71S72.42,1.5,47.21,1.5Z"/>
    <g>
      <path class="cls-2" d="M47.21,4.08C23.43,4.08,4.08,23.43,4.08,47.21s19.35,43.13,43.13,43.13,43.13-19.35,43.13-43.13S70.99,4.08,47.21,4.08ZM20.77,25.6c11.13-13.49,30.75-16.4,45.23-6.57.64.44.83,1.3.65,1.9-.16.52-1.27,1.57-2.08,1.01-13.15-9.05-30.81-6.66-41.1,5.46-.52.61-1.38.72-2.11.37-.55-.27-1.11-1.54-.59-2.17ZM17.94,64.58c-.64-.58-.69-1.56-.1-2.31,5.26-6.73,2.12-11.57,5.03-11.7.89-.04,1.75.6,1.74,1.6-.03,4.44-1.5,8.64-4.3,12.18-.68.87-1.74.82-2.38.23ZM44.65,70.99c-1.37,2.9-3.04,5.55-5.02,8.19-.62.83-1.53,1-2.24.62-.69-.37-1.17-1.46-.61-2.21,1.88-2.53,3.56-5.08,4.93-7.95.41-.85,1.37-1.16,2.06-.87.89.37,1.3,1.32.88,2.22ZM85.62,48.31h-4.49c-.02.52-.05,1.03-.1,1.55-.09.96-1.02,1.48-1.67,1.45-1.52-.07-1.55-1.13-1.5-2.99h-4.79c.52,8-.67,16.02-2.94,23.73-.27.91-1.33,1.15-2,.98-.7-.18-1.34-.98-1.08-1.89,2.13-7.42,3.31-15.05,2.77-22.81h-4.9c.02.1.04.21.05.32.56,10.41-1.55,20.63-6.17,30.04-.45.92-1.45,1.06-2.07.8-.79-.33-1.28-1.3-.84-2.19,4.37-8.93,6.41-18.68,5.85-28.63,0-.12,0-.23.02-.34h-4.88c.75,11.4-2.08,22.63-8.33,32.22-.48.73-1.48.81-2.06.51-.83-.44-1.16-1.45-.61-2.31,5.78-9.04,8.57-19.58,7.72-30.42h-4.85c.4,4.65.07,9.25-1.01,13.82-.21.9-1.11,1.36-1.88,1.22-.87-.16-1.48-1.03-1.25-2.01.99-4.31,1.28-8.62.89-13.02h-4.91s0,.03,0,.04c1.13,10.15-2.25,20.21-9,27.78-.64.71-1.68.59-2.18.16-.76-.64-.83-1.64-.14-2.42,6.12-6.94,9.17-16.08,8.1-25.33,0-.08,0-.15-.02-.23h-4.77c.81,8.56-1.62,16.7-7.49,22.86-.58.61-1.63.52-2.21-.02-.58-.54-.7-1.6-.07-2.27,5.19-5.54,7.25-12.76,6.53-20.24-.01-.11,0-.22-.02-.33h-12.99c.07,1.75.27,3.51.64,5.27.21,1.01-.31,1.81-1,2.02-.91.28-1.91-.14-2.13-1.15-.44-2.03-.67-4.08-.75-6.14h-4.31c-.53,0-.96-.43-.96-.96v-.53c0-.53.43-.96.96-.96h4.31c.15-4.22,1.06-8.39,2.76-12.31.41-.95,1.19-1.36,2.08-1.11.78.22,1.41,1.17,1.01,2.1-1.58,3.6-2.45,7.42-2.61,11.32h12.97c.46-7.38,5.58-13.6,12.63-15.71,8.18-2.45,16.97,1.27,20.85,8.94.4.79-.04,1.76-.66,2.1-.59.33-1.74.27-2.14-.51-3.16-6.24-10.15-9.39-16.89-7.49-5.73,1.62-10.08,6.56-10.54,12.66h4.85c.64-4.3,3.98-7.75,8.43-8.28,5.31-.62,9.94,3.01,10.79,8.28h12.96c-.09-.8-.2-1.61-.33-2.42-1.17-7.14-5.59-13.05-11.86-16.34-6.6-3.46-14.25-3.46-21.15.17-5.73,3.02-10.34,8.9-11.51,15.88-.17,1.04-.92,1.68-1.91,1.54-1.03-.15-1.47-1.07-1.29-2.13,1.36-7.92,6.55-14.61,13.07-18.09,7.9-4.21,16.79-4.21,24.37-.2,7.12,3.77,12.1,10.5,13.45,18.49.17,1.03.31,2.06.42,3.1h5.02c-.03-.74-.09-1.55-.24-2.43-.99-5.9-3.38-11.4-7.15-16.01-.68-.83-.78-1.73.03-2.45.63-.55,1.71-.56,2.39.27,4.57,5.6,7.81,13.09,8.18,20.62h4.52c.53,0,.96.43.96.96v.53c0,.53-.43.96-.96.96Z"/>
      <path class="cls-2" d="M46.22,40.8c-2.93.38-4.91,2.43-5.49,5.05h5.43c.19-.12.4-.21.62-.24.4-.05.78.04,1.1.24h5.45c-.7-3.45-3.98-5.46-7.11-5.05Z"/>
    </g>
  </g>
</svg>