<?xml version="1.0" encoding="UTF-8"?>
<svg id="Capa_2" data-name="Capa 2" xmlns="http://www.w3.org/2000/svg" viewBox="0 0 172.78 148.93">
  <defs>
    <style>
      .cls-1 {
        stroke-width: 3px;
      }

      .cls-1, .cls-2 {
        fill: none;
        stroke: #1fb6ff;
        stroke-miterlimit: 10;
      }

      .cls-3 {
        fill: #1fb6ff;
        opacity: .47;
      }
    </style>
  </defs>
  <g id="OBJECTS">
    <g>
      <path class="cls-1" d="M100.36,123.01c-.11-8.31-7.47-14.15-14.89-13.68-18.87,1.2-11.71,25.03-13.55,37.97l-40.09.09c-6.42.02-11.5-4.9-11.51-11.42l-.06-55.05c-5.34,4.52-11.35,4.81-15.63.73-3.83-3.66-4.63-10.79.2-14.84L80.35,3.48c3.55-2.97,9.23-2.41,12.61.43l73.88,61.92c5.03,4.22,6.03,10.68,1.74,15.37-4.07,4.45-10.55,4.49-16.2-.39v54.13c0,7.63-4.88,12.52-12.49,12.49l-39.21-.16-.32-24.26Z"/>
      <path class="cls-3" d="M166.79,65.61L92.91,3.68c-3.38-2.84-9.07-3.4-12.61-.43L4.8,66.58c-4.83,4.05-4.03,11.18-.2,14.84,4.28,4.09,10.29,3.8,15.63-.73l.06,55.05c0,6.52,5.09,11.44,11.51,11.42l40.09-.09c1.83-12.94-5.32-36.77,13.55-37.97,7.42-.47,14.78,5.36,14.89,13.68l.32,24.26,39.21.16c7.62.03,12.5-4.86,12.5-12.49v-54.13c5.64,4.89,12.13,4.85,16.19.39,4.28-4.69,3.29-11.15-1.74-15.37ZM85.89,36.53c4.84,0,8.76,4.69,8.76,10.46s-3.87,10.29-8.76,10.46c-4.84,0-8.76-4.69-8.76-10.46s3.92-10.46,8.76-10.46ZM84.7,91c-21.82,0-31.4-33.94-31.91-36.46s2.93-12.14,6.88-13.06c3.96-.92,10.09,36.55,24.87,36.55,11.12,0,23-28.28,23-28.28,0,0,3.76-9.19,7.37-9.19,1.95,0-8.88,50.44-30.22,50.44Z"/>
      <path class="cls-2" d="M85.89,57.46c4.89-.18,8.76-4.69,8.76-10.46s-3.92-10.46-8.76-10.46-8.76,4.69-8.76,10.46,3.92,10.46,8.76,10.46Z"/>
      <path class="cls-2" d="M114.92,40.56c-3.61,0-7.37,9.19-7.37,9.19,0,0-11.88,28.28-23,28.28-14.79,0-20.92-37.48-24.87-36.55-3.96.92-7.39,10.54-6.88,13.06s10.09,36.46,31.91,36.46,32.17-50.44,30.22-50.44Z"/>
    </g>
  </g>
</svg>