<?xml version="1.0" encoding="UTF-8"?>
<svg id="Capa_2" data-name="Capa 2" xmlns="http://www.w3.org/2000/svg" viewBox="0 0 172.78 148.93">
  <defs>
    <style>
      .cls-1 {
        stroke-width: 3px;
      }

      .cls-1, .cls-2 {
        fill: none;
        stroke: #1fb6ff;
        stroke-miterlimit: 10;
      }

      .cls-2 {
        stroke-width: 1.42px;
      }

      .cls-3 {
        fill: #1fb6ff;
        opacity: .47;
      }
    </style>
  </defs>
  <g id="OBJECTS">
    <g>
      <path class="cls-1" d="M31.84,147.39c-6.42.02-11.5-4.9-11.51-11.42l-.06-55.05c-5.34,4.52-11.35,4.81-15.63.73-3.83-3.66-4.63-10.79.2-14.84L80.35,3.48c3.55-2.97,9.23-2.41,12.61.43l73.88,61.92c5.03,4.22,6.03,10.68,1.74,15.37-4.07,4.45-10.55,4.49-16.2-.39v54.13c0,7.63-4.88,12.52-12.49,12.49l-39.21-.16-68.84.13Z"/>
      <path class="cls-3" d="M166.79,65.61L92.91,3.68c-3.38-2.84-9.07-3.4-12.61-.43L4.8,66.58c-4.83,4.05-4.03,11.18-.2,14.84,4.28,4.09,10.29,3.8,15.63-.73l.06,55.05c0,6.52,5.09,11.44,11.51,11.42l68.84-.13,39.21.16c7.62.03,12.5-4.86,12.5-12.49v-54.13c5.64,4.89,12.13,4.85,16.19.39,4.28-4.69,3.29-11.15-1.74-15.37ZM88.13,52.58c6.87,0,12.44,6.65,12.44,14.86s-5.49,14.61-12.44,14.86c-6.87,0-12.44-6.65-12.44-14.86s5.57-14.86,12.44-14.86ZM86.44,129.91c-30.97,0-44.58-48.18-45.3-51.76s4.15-17.23,9.77-18.54c5.62-1.31,14.32,51.89,35.31,51.89,15.78,0,32.65-40.15,32.65-40.15,0,0,5.34-13.05,10.47-13.05,2.77,0-12.61,71.61-42.9,71.61Z"/>
      <path class="cls-2" d="M88.29,82.54c6.94-.25,12.44-6.65,12.44-14.86s-5.57-14.86-12.44-14.86-12.44,6.65-12.44,14.86,5.57,14.86,12.44,14.86Z"/>
      <path class="cls-2" d="M129.5,58.54c-5.13,0-10.47,13.05-10.47,13.05,0,0-16.87,40.15-32.65,40.15-20.99,0-29.7-53.2-35.31-51.89-5.62,1.31-10.49,14.96-9.77,18.54s14.33,51.76,45.3,51.76,45.67-71.61,42.9-71.61Z"/>
    </g>
  </g>
</svg>