<?xml version="1.0" encoding="UTF-8"?>
<svg xmlns="http://www.w3.org/2000/svg" viewBox="0 0 89.31 89.43">
  <defs>
    <style>
      .cls-1 {
        stroke-width: .4px;
      }

      .cls-1, .cls-2 {
        fill: none;
        stroke: #f9fafc;
        stroke-miterlimit: 10;
      }

      .cls-2 {
        stroke-width: .2px;
      }

      .cls-3 {
        fill: #f9fafc;
      }

      .cls-4 {
        fill: #fff;
      }

      .cls-5 {
        fill: #dbdbdb;
        mix-blend-mode: multiply;
        opacity: .35;
      }

      .cls-6 {
        isolation: isolate;
      }
    </style>
  </defs>
  <g class="cls-6">
    <g id="Capa_2" data-name="Capa 2">
      <g id="OBJECTS">
        <g>
          <path class="cls-5" d="M54.11,89.23l12.97-.3c3.13-.07,6.04-.62,8.99-1.61,5.72-1.92,9.93-6.46,11.61-12.23.8-2.76,1.21-5.45,1.34-8.32l.27-10.51-.05-25.19-.24-8.07c-.09-2.95-.48-5.7-1.29-8.54-1.57-5.46-5.39-9.87-10.69-11.98-3.28-1.3-6.61-1.86-10.13-1.97l-10.85-.32-26.19.07-6.52.25c-3.64.05-7.12.59-10.55,1.9C7.66,4.4,3.85,8.53,2.15,13.74c-.98,3.01-1.44,5.93-1.52,9.11l-.29,11.42v19.01s.29,13.42.29,13.42c.07,3.15.56,6.06,1.53,9.04,1.74,5.34,5.71,9.52,11,11.43,3.01,1.09,6.06,1.67,9.27,1.76l10.64.31h21.04Z"/>
          <path class="cls-3" d="M72.68,45.19c0,15.35-12.44,27.79-27.79,27.79s-27.79-12.44-27.79-27.79,12.44-27.79,27.79-27.79,27.79,12.44,27.79,27.79ZM62.93,45.19c0-9.97-8.08-18.04-18.04-18.04s-18.04,8.08-18.04,18.04,8.08,18.04,18.04,18.04,18.04-8.08,18.04-18.04Z"/>
          <circle class="cls-4" cx="73.77" cy="16.39" r="6.49"/>
          <path class="cls-1" d="M83.44,75.61c.89-2.91,1.34-5.73,1.49-8.75l.3-11.06-.06-26.51-.26-8.49c-.1-3.1-.53-6-1.43-8.99-1.05-3.49-3.03-6.58-5.74-8.96-.28-.13-.56-.25-.85-.36-3.28-1.3-6.61-1.86-10.13-1.97l-10.85-.32-26.19.07-6.52.25c-3.64.05-7.12.59-10.55,1.9C7.52,4.4,3.71,8.53,2.01,13.74c-.98,3.01-1.44,5.93-1.52,9.11l-.29,11.42v19.01s.29,13.42.29,13.42c.07,3.15.56,6.06,1.53,9.04,1.74,5.34,5.71,9.52,11,11.43,3.01,1.09,6.06,1.67,9.27,1.76l10.64.31h21.04s12.97-.3,12.97-.3c.95-.02,1.88-.09,2.79-.2.29-.08.57-.17.86-.26,6.33-2.02,10.99-6.79,12.84-12.86Z"/>
          <path class="cls-3" d="M89.11,31.07l-.24-8.07c-.09-2.95-.48-5.7-1.29-8.54-1.48-5.16-4.98-9.39-9.84-11.61,2.7,2.38,4.68,5.47,5.74,8.96.9,2.99,1.33,5.89,1.43,8.99l.26,8.49.06,26.51-.3,11.06c-.14,3.02-.6,5.84-1.49,8.75-1.86,6.07-6.52,10.85-12.84,12.86-.29.09-.57.18-.86.26,2.1-.25,4.14-.72,6.2-1.41,5.72-1.92,9.93-6.46,11.61-12.23.8-2.76,1.21-5.45,1.34-8.32l.27-10.51-.05-25.19Z"/>
          <path class="cls-2" d="M88.95,31.18l-.24-8.07c-.09-2.95-.48-5.7-1.29-8.54-1.48-5.16-4.98-9.39-9.84-11.61,2.7,2.38,4.68,5.47,5.74,8.96.9,2.99,1.33,5.89,1.43,8.99l.26,8.49.06,26.51-.3,11.06c-.14,3.02-.6,5.84-1.49,8.75-1.86,6.07-6.52,10.85-12.84,12.86-.29.09-.57.18-.86.26,2.1-.25,4.14-.72,6.2-1.41,5.72-1.92,9.93-6.46,11.61-12.23.8-2.76,1.21-5.45,1.34-8.32l.27-10.51-.05-25.19Z"/>
        </g>
      </g>
    </g>
  </g>
</svg>