<?xml version="1.0" encoding="UTF-8"?>
<svg id="Capa_2" data-name="Capa 2" xmlns="http://www.w3.org/2000/svg" viewBox="0 0 84.47 84.47">
  <defs>
    <style>
      .cls-1 {
        fill: #ff9f1c;
      }
    </style>
  </defs>
  <g id="OBJECTS">
    <g>
      <path class="cls-1" d="M57,30.15h-30.39c-.57,0-1.04.47-1.04,1.04v30.84c0,.57.47,1.04,1.04,1.04h30.16l-1.45-1.79c-.31-.38-.29-.93-.1-1.29.19-.36.63-.66,1.1-.67h1.72v-28.14c0-.57-.47-1.04-1.04-1.04ZM28.59,61.61c-.73,0-1.16-.48-1.16-1.11v-27.51c0-.61.2-1.08.93-1.21.5-.08,1.34.22,1.34.86v27.9c.01.66-.59,1.06-1.12,1.06Z"/>
      <path class="cls-1" d="M23.17,23.84l35.53.02c.3,0,.47-.12.67-.03.02-.06-.04-.2,0-.25-1.27-1.83-1.29-4.53,0-6.35-.02-.06-.02-.17-.02-.24l-36.18-.04c-1.18,0-2.1.29-2.74,1.29-1,1.55-.83,3.68.59,4.95.57.51,1.32.66,2.15.66Z"/>
      <path class="cls-1" d="M42.23,0C18.95,0,0,18.95,0,42.23s18.95,42.23,42.23,42.23,42.23-18.95,42.23-42.23S65.52,0,42.23,0ZM56.13,70.85c-.34.33-.82.41-1.42.41h-31.53c-.86,0-1.63-.11-2.4-.33-1.7-.49-3.29-2.74-3.29-3.82l-.04-46.53c0-.97.14-1.87.42-2.58,1.07-2.73,3.31-3.42,5.96-3.41l39.11.08c.73,0,1.35-.27,1.95-.03.65.26.97.85.84,1.45-.41,1.87-2.99.11-4.21,2.05-.75,1.2-1.03,2.58-.36,3.8.34.61.64,1.25,1.3,1.51,1.89.76,2.3-.11,3.09.72.59.63-.11,1.59-.48,2.26l-.05,18.5c-.02.5-.85.71-1.19.67-.36-.04-1.08-.21-1.08-.77l-.07-17.92c0-.25-.16-.56-.29-.68-.15-.13-.44-.1-.75-.1H22.91c-.75-.01-1.42-.05-2.12-.28-.35-.11-.54-.59-.98-.36l.02,39.51c0,1.43.12,2.83,1.46,3.48.62.3,1.28.34,2.02.34l30.35.02c.52,0,2.55-.29,2.77.68.12.52.02,1.03-.3,1.34ZM65.11,70.38c-.36.44-.57.73-1.02.76-.46.03-.88-.08-1.19-.46l-2.31-2.87-2.64-3.26H25.26c-.62,0-1.14-.51-1.14-1.14V29.83c0-.62.51-1.14,1.14-1.14h33.09c.62,0,1.14.51,1.14,1.14v20c.18-.1.38-.18.61-.17l7.51.02c.83,0,1.34.62,1.34,1.43l.03,8.19,2.61.08c.46.01.86.36.98.65.21.49.11,1-.21,1.4l-7.25,8.97Z"/>
    </g>
  </g>
</svg>