<?xml version="1.0" encoding="UTF-8"?>
<svg id="Capa_2" data-name="Capa 2" xmlns="http://www.w3.org/2000/svg" viewBox="0 0 94.42 94.42">
  <defs>
    <style>
      .cls-1 {
        fill: none;
        stroke: #ff9f1c;
        stroke-miterlimit: 10;
        stroke-width: 2px;
      }

      .cls-2 {
        fill: #ff9f1c;
      }
    </style>
  </defs>
  <g id="OBJECTS">
    <path class="cls-1" d="M47.21,93.42C21.73,93.42,1,72.69,1,47.21S21.73,1,47.21,1s46.21,20.73,46.21,46.21-20.73,46.21-46.21,46.21ZM47.21,1.5C22.01,1.5,1.5,22.01,1.5,47.21s20.51,45.71,45.71,45.71,45.71-20.51,45.71-45.71S72.42,1.5,47.21,1.5Z"/>
    <g>
      <g>
        <path class="cls-2" d="M80.64,65.26c-.14-.31-.56-.68-1.06-.7l-2.83-.09-.03-8.86c0-.87-.55-1.54-1.46-1.55l-8.13-.02c-.72,0-1.31.54-1.31,1.26v9.22s-2.77,0-2.77,0c-.51,0-.98.33-1.19.72-.21.39-.23.98.1,1.4l5.7,7.05,2.5,3.11c.33.41.79.53,1.28.5.49-.03.72-.34,1.11-.82l7.85-9.7c.35-.43.46-.98.23-1.52Z"/>
        <path class="cls-2" d="M76.14,67.92l-.16.18c-.02.44-.46.59-.72.84-.27.25-.44.67-.7,1l-2.3,2.87c-.36.45-.66.85-1.12,1.2l-2.6-3.36c-.29-.37-.57-.79-.88-1.1-.73-.72-1.36-1.54-2.04-2.4,1.54-.22,1.36.27,2.61-.63-.01-.04,0-.1,0-.15v-7.76c.01-.68.16-1.31.1-2.01h5.8s0,9.05,0,9.05c0,.85.57,1.47,1.44,1.45.37,0,.71-.03,1.17,0-.04.43-.4.58-.61.82Z"/>
        <path class="cls-2" d="M60.16,74.8l-32.85-.02c-.8,0-1.51-.04-2.18-.37-1.45-.71-1.58-2.21-1.58-3.76l-.02-42.77c.48-.24.67.27,1.06.39.76.24,1.48.28,2.3.28l41.93.02c.33,0,.64-.04.81.11.15.13.32.46.32.73l.07,19.4c0,.61.78.78,1.17.83.37.04,1.27-.19,1.29-.73l.05-20.02c.39-.72,1.16-1.76.52-2.44-.85-.9-1.3.04-3.34-.78-.71-.29-1.04-.97-1.41-1.64-.73-1.31-.42-2.81.39-4.11,1.32-2.1,4.11-.19,4.55-2.22.14-.64-.21-1.28-.91-1.56-.65-.26-1.33.03-2.11.03l-42.34-.09c-2.87,0-5.29.74-6.45,3.69-.3.77-.46,1.74-.46,2.79l.05,50.37c0,1.17,1.72,3.6,3.57,4.14.83.24,1.67.35,2.6.35h34.13c.64,0,1.16-.08,1.53-.44.35-.33.46-.89.32-1.45-.25-1.04-2.44-.73-3-.73ZM27.17,18.64l39.16.05c0,.08,0,.19.02.26-1.39,1.97-1.36,4.9,0,6.88-.05.05.01.2,0,.27-.22-.1-.4.03-.73.03l-38.46-.02c-.91,0-1.72-.17-2.33-.72-1.54-1.37-1.72-3.68-.63-5.35.7-1.07,1.7-1.39,2.97-1.39Z"/>
        <path class="cls-2" d="M32.8,34.7c-.8.14-1.01.64-1.01,1.3v29.78c0,.68.46,1.2,1.25,1.2.58,0,1.23-.43,1.23-1.15v-30.2c-.01-.69-.92-1.02-1.46-.93Z"/>
      </g>
      <path class="cls-2" d="M65.24,31.36H29.43c-.68,0-1.23.55-1.23,1.23v36.34c0,.68.55,1.23,1.23,1.23h35.82c.68,0,1.23-.55,1.23-1.23v-36.34c0-.68-.55-1.23-1.23-1.23ZM64.91,67.45c0,.62-.51,1.13-1.13,1.13H30.89c-.62,0-1.13-.51-1.13-1.13v-33.38c0-.62.51-1.13,1.13-1.13h32.9c.62,0,1.13.51,1.13,1.13v33.38Z"/>
    </g>
  </g>
</svg>