<?xml version="1.0" encoding="UTF-8"?>
<svg id="Capa_2" data-name="Capa 2" xmlns="http://www.w3.org/2000/svg" viewBox="0 0 94.42 94.42">
  <defs>
    <style>
      .cls-1 {
        fill: none;
        stroke: #9b6bff;
        stroke-miterlimit: 10;
        stroke-width: 2px;
      }

      .cls-2 {
        fill: #9b6bff;
      }
    </style>
  </defs>
  <g id="OBJECTS">
    <path class="cls-1" d="M47.21,93.42C21.73,93.42,1,72.69,1,47.21S21.73,1,47.21,1s46.21,20.73,46.21,46.21-20.73,46.21-46.21,46.21ZM47.21,1.5C22.01,1.5,1.5,22.01,1.5,47.21s20.51,45.71,45.71,45.71,45.71-20.51,45.71-45.71S72.42,1.5,47.21,1.5Z"/>
    <path class="cls-2" d="M88.56,47.21c0-22.8-18.55-41.35-41.35-41.35S5.86,24.41,5.86,47.21c0,19.89,14.12,36.54,32.86,40.47,1.99-3.6,3.12-7.68,1.14-11.47-.49-1.24-1.71-2.01-3.12-1.78l-6.01.99c-2.04.34-3.96.36-5.76-.33-1.15-.44-2.35-1.56-2.2-2.89l.39-3.57-1.82-1.53.53-1.7c-.79-.5-1.72-1.44-1.15-2.44.27-.47.59-1.29.42-1.73-.5-1.24-3.94-1.12-3.19-2.51l4.4-8.08c.97-1.78,0-2.82-.38-4.32-1.1-4.29,1.12-8.54,2.65-12.46.69-1.77.68-3.51,1.87-5.13,1.77-2.4,4.03-4.21,6.9-5.26,7.8-2.86,18.32-2.6,25.28,2.73,5.83,3,8.94,14.44,9.18,20.26-.71,8.39-5.07,11.02-7.31,18.67-.58,2.69-1.23,5.39-.63,8.16.76,3.51,2.78,7.67,4.57,11.49,14.2-6.55,24.08-20.92,24.08-37.56Z"/>
  </g>
</svg>