<?xml version="1.0" encoding="UTF-8"?>
<svg id="Capa_2" data-name="Capa 2" xmlns="http://www.w3.org/2000/svg" viewBox="0 0 94.42 94.42">
  <defs>
    <style>
      .cls-1 {
        fill: none;
        stroke: #2bff88;
        stroke-miterlimit: 10;
        stroke-width: 2px;
      }

      .cls-2 {
        fill: #2bff88;
      }
    </style>
  </defs>
  <g id="OBJECTS">
    <path class="cls-1" d="M47.21,93.42C21.73,93.42,1,72.69,1,47.21S21.73,1,47.21,1s46.21,20.73,46.21,46.21-20.73,46.21-46.21,46.21ZM47.21,1.5C22.01,1.5,1.5,22.01,1.5,47.21s20.51,45.71,45.71,45.71,45.71-20.51,45.71-45.71S72.42,1.5,47.21,1.5Z"/>
    <rect class="cls-2" x="6.03" y="45.33" width="83.46" height="2.6" rx="1.02" ry="1.02"/>
    <g>
      <path class="cls-2" d="M71.14,42.77c-1.24-7.57-5.92-13.83-12.57-17.32-7-3.67-15.1-3.66-22.41.18-6.08,3.2-10.96,9.43-12.2,16.84-.19,1.11-.97,1.78-2.02,1.63s-1.56-1.13-1.36-2.26c1.44-8.4,6.94-15.49,13.86-19.17,8.37-4.46,17.8-4.46,25.83-.22,7.55,3.99,12.83,11.13,14.25,19.59,1.75,10.41.53,20.97-2.44,31.04-.29.97-1.41,1.22-2.12,1.03s-1.42-1.04-1.15-2c2.73-9.51,3.99-19.34,2.35-29.34Z"/>
      <path class="cls-2" d="M54.35,45.93c-.47-4.02-4.14-6.41-7.64-5.96-4.04.53-6.4,4.04-5.96,8,1.2,10.76-2.38,21.42-9.54,29.44-.67.76-1.78.62-2.32.17-.81-.68-.88-1.74-.15-2.56,6.48-7.35,9.72-17.04,8.59-26.85-.67-5.81,3.32-10.96,8.99-11.62s10.96,3.51,11.55,9.48c1.25,12.74-1.72,25.35-8.69,36.05-.51.78-1.57.86-2.18.54-.88-.46-1.23-1.53-.64-2.45,6.48-10.14,9.42-22.05,8-34.24Z"/>
      <path class="cls-2" d="M32.26,47.9c.86,9.09-1.71,17.72-7.93,24.27-.61.64-1.73.55-2.34-.02s-.74-1.7-.07-2.41c5.5-5.87,7.69-13.53,6.92-21.45-.88-9.07,4.95-17.09,13.35-19.6,8.67-2.59,17.99,1.35,22.1,9.48.42.84-.04,1.87-.7,2.23s-1.84.29-2.26-.55c-3.35-6.61-10.76-9.95-17.91-7.93-6.86,1.93-11.87,8.37-11.15,15.99Z"/>
      <path class="cls-2" d="M66.16,19.98c-13.94-9.59-32.66-7.06-43.56,5.79-.55.65-1.46.77-2.24.39-.59-.28-1.18-1.63-.62-2.3,11.79-14.3,32.6-17.39,47.94-6.96.68.46.88,1.38.69,2.01-.17.55-1.35,1.66-2.2,1.07Z"/>
      <path class="cls-2" d="M60.05,80.12c-.48.97-1.54,1.12-2.2.85-.83-.35-1.36-1.37-.89-2.32,4.63-9.46,6.79-19.8,6.2-30.35-.06-1,.81-1.69,1.55-1.75,1.01-.07,1.82.59,1.88,1.73.59,11.04-1.64,21.87-6.54,31.84Z"/>
      <path class="cls-2" d="M83.61,49.57c-.09,1.02-1.08,1.56-1.77,1.53-2.7-.12-.95-3.2-1.82-8.35-1.05-6.25-3.59-12.09-7.58-16.97-.72-.88-.83-1.84.04-2.6.66-.59,1.81-.59,2.53.29,5.71,6.98,9.46,16.75,8.6,26.09Z"/>
      <path class="cls-2" d="M15.72,53.51c.22,1.07-.33,1.92-1.06,2.15-.97.3-2.02-.15-2.25-1.22-1.61-7.46-.9-15.18,2.13-22.15.44-1.01,1.26-1.44,2.21-1.18.82.23,1.5,1.24,1.07,2.23-2.77,6.33-3.52,13.27-2.09,20.18Z"/>
      <path class="cls-2" d="M48.33,62.57c-.22.95-1.17,1.44-1.99,1.29-.93-.17-1.57-1.09-1.33-2.13,1.12-4.86,1.41-9.73.87-14.72-.11-1,.58-1.84,1.43-1.94.97-.12,1.86.49,1.98,1.6.6,5.35.29,10.65-.95,15.9Z"/>
      <path class="cls-2" d="M19.26,64.93c-.73.92-1.84.87-2.53.24s-.73-1.65-.1-2.45c5.57-7.13,2.25-12.26,5.34-12.4.94-.04,1.85.64,1.85,1.7-.03,4.7-1.6,9.16-4.56,12.91Z"/>
      <path class="cls-2" d="M39.72,80.64c-.66.88-1.62,1.06-2.37.66s-1.24-1.55-.65-2.34c2-2.69,3.77-5.39,5.22-8.42.43-.9,1.46-1.22,2.19-.93.95.39,1.38,1.4.93,2.35-1.45,3.08-3.22,5.88-5.32,8.68Z"/>
    </g>
  </g>
</svg>