<?xml version="1.0" encoding="UTF-8"?>
<svg xmlns="http://www.w3.org/2000/svg" viewBox="0 0 105.77 99.96">
  <defs>
    <style>
      .cls-1 {
        fill: #fff;
      }

      .cls-2 {
        fill: #dbdbdb;
        mix-blend-mode: multiply;
        opacity: .35;
      }

      .cls-3 {
        fill: none;
        opacity: .72;
        stroke: #fff;
        stroke-miterlimit: 10;
        stroke-width: 1.32px;
      }

      .cls-4 {
        isolation: isolate;
      }
    </style>
  </defs>
  <g class="cls-4">
    <g id="Capa_2" data-name="Capa 2">
      <g id="OBJECTS">
        <g>
          <g>
            <path class="cls-3" d="M71.89,77.43l8.86.07c-.17.19-.34.36-.51.54,4.32-1.86,6.78-7.77,8.65-12.13,2.33-5.44,4.2-12.23,7.9-17.25-.03-26.51-21.54-48-48.07-48S.66,22.17.66,48.7s21.52,48.05,48.07,48.05c1.08,0,2.15-.05,3.21-.12-1.69-1.64-3.11-3.58-4.23-5.92-.52-1.1-1.01-2.21-1.46-3.33v4.19c-3.51-.7-6.21-2.51-8.64-4.8-2.72-2.69-4.83-5.77-6.59-9.34h9.41c-.16-.33-.33-.64-.49-.96-.6-1.25-1.16-2.6-1.67-3.99h-9.42c-2.53-6.82-3.73-13.97-3.98-21.29h13.93c.03-.05.06-.1.09-.15,1.65-2.47,3.88-4.09,6.28-4.8h-20.28c.2-7.19,1.41-14.3,3.95-21.28h17.41s0,21.02,0,21.02c3.66-.66,7.55.72,10.29,4.31.22.29.43.6.63.9h2.68c.29-1.7.74-3.38,1.4-4.95h-10.05s0-21.28,0-21.28h17.4c1.55,4.18,2.6,8.48,3.24,12.87,1.7-.18,3.4-.02,5.05.41-.59-4.47-1.56-8.87-3.02-13.27l10.82-.02c4.2,6.35,6.64,13.52,7.1,21.29h-4.31c.93,1.55,1.61,3.22,1.96,4.96h2.35c-.46,7.66-2.84,14.84-7.09,21.29h-10.82c.54-1.62,1-3.24,1.41-4.88-1.67.17-3.37.06-5.02-.35-.47,1.74-1.01,3.47-1.64,5.22h-2.31c.62,1.18,1.3,2.33,2.09,3.43.89,1.24,1.88,2.13,2.95,2.77.19-.4.37-.81.55-1.22ZM12.78,24.93l10.81.02c-2.29,6.96-3.42,13.84-3.67,21.27H5.68c.44-7.71,2.89-14.96,7.1-21.29ZM12.77,72.47c-4.22-6.36-6.64-13.59-7.1-21.29h14.25c.25,7.28,1.35,14.28,3.68,21.29h-10.83ZM25.53,77.4c1.78,4.04,3.95,7.6,6.88,11.14-6.01-2.35-11.32-6.17-15.75-11.07l8.87-.07ZM25.58,19.96l-8.89-.03c4.27-4.82,9.55-8.59,15.68-11.08-2.76,3.51-5.06,6.93-6.79,11.11ZM31.06,19.99c1.67-3.55,3.88-6.7,6.64-9.43,2.42-2.26,5.09-4.01,8.55-4.73l.02,14.15h-15.2ZM51.21,20V5.83c3.61.75,6.41,2.64,8.88,5.05,2.62,2.64,4.64,5.63,6.34,9.1h-15.22ZM71.91,19.98c-1.79-4.07-3.99-7.66-6.9-11.15,6.08,2.45,11.37,6.18,15.75,11.09l-8.85.06Z"/>
            <g>
              <path class="cls-2" d="M46.26,19.95l-.02-14.16c-3.46.73-6.13,2.47-8.55,4.73-2.76,2.72-4.97,5.88-6.64,9.43h15.2Z"/>
              <path class="cls-2" d="M66.42,19.95c-1.7-3.47-3.72-6.46-6.34-9.1-2.46-2.42-5.26-4.31-8.87-5.06v14.17s15.21-.01,15.21-.01Z"/>
              <path class="cls-2" d="M25.58,19.93c1.73-4.18,4.03-7.6,6.79-11.12-6.12,2.49-11.41,6.26-15.68,11.09l8.89.03Z"/>
              <path class="cls-2" d="M80.76,19.89c-4.38-4.91-9.67-8.65-15.75-11.1,2.92,3.49,5.11,7.09,6.9,11.16l8.85-.06Z"/>
              <path class="cls-2" d="M19.92,46.2c.25-7.43,1.38-14.32,3.67-21.28l-10.81-.02c-4.21,6.33-6.66,13.59-7.1,21.3h14.24Z"/>
              <path class="cls-2" d="M46.25,45.97v-21.06s-17.42,0-17.42,0c-2.53,6.98-3.74,14.1-3.95,21.3h20.36c.33-.1.66-.18,1-.24Z"/>
              <path class="cls-2" d="M69.03,38.42c.92-.31,1.86-.51,2.8-.61-.64-4.39-1.69-8.71-3.24-12.91h-17.4s0,21.3,0,21.3h10.06c1.46-3.51,3.91-6.47,7.77-7.78Z"/>
              <path class="cls-2" d="M87.46,46.2h4.32c-.47-7.77-2.91-14.95-7.1-21.3l-10.82.02c1.46,4.41,2.44,8.82,3.03,13.3,4.32,1.12,8.23,4.13,10.57,7.98Z"/>
              <path class="cls-2" d="M23.6,72.46c-2.34-7.02-3.44-14.02-3.68-21.31H5.67c.46,7.71,2.88,14.95,7.1,21.31h10.83Z"/>
              <path class="cls-2" d="M38.82,51.16h-13.94c.25,7.33,1.45,14.48,3.98,21.31h9.42c-2.48-6.88-3.48-15.15.54-21.31Z"/>
              <path class="cls-2" d="M66.26,65.59c-1.65-.99-2.99-2.16-4.04-3.49,1.23,3.52,2.38,7.08,4.09,10.35h2.32c.63-1.74,1.17-3.48,1.63-5.21-1.38-.34-2.73-.89-3.99-1.65Z"/>
              <path class="cls-2" d="M59.73,51.97c.04-.27.08-.54.13-.81h-2.69c.96,1.38,1.76,2.85,2.47,4.37-.1-1.14-.08-2.32.09-3.56Z"/>
              <path class="cls-2" d="M89.43,51.16c.26,1.28.34,2.6.22,3.94-.55,5.67-4.93,9.88-10.06,11.38-1.38.59-2.83.96-4.31,1.11-.41,1.63-.88,3.26-1.41,4.87h10.82c4.25-6.46,6.63-13.64,7.09-21.3h-2.35Z"/>
              <path class="cls-2" d="M25.52,77.4l-8.87.07c4.43,4.91,9.74,8.73,15.75,11.08-2.93-3.54-5.1-7.1-6.88-11.14Z"/>
              <path class="cls-2" d="M44.95,83.92c-.34-.32-.67-.65-.97-1.01-1.39-1.68-2.56-3.56-3.55-5.5h-9.41c1.76,3.58,3.87,6.65,6.59,9.35,2.43,2.29,5.13,4.1,8.64,4.8v-4.19c-.46-1.14-.89-2.29-1.3-3.45Z"/>
              <path class="cls-2" d="M74.8,78.22c2.09.64,3.88.49,5.43-.17.17-.19.35-.37.52-.56l-8.86-.07c-.18.42-.36.82-.55,1.23.15.09.3.16.45.24.71-.7,1.75-1.05,3.01-.66Z"/>
            </g>
          </g>
          <g>
            <path class="cls-1" d="M48.29,48.65c4.1-.96,10.45,37.88,25.77,37.88,11.52,0,23.83-29.31,23.83-29.31,0,0,3.9-9.53,7.64-9.53,2.02,0-9.2,52.27-31.31,52.27s-32.54-35.17-33.07-37.78c-.53-2.61,3.03-12.57,7.13-13.53Z"/>
            <path class="cls-1" d="M84.54,54.36c0,5.99-4.01,10.66-9.08,10.84-5.01,0-9.08-4.85-9.08-10.84s4.06-10.84,9.08-10.84,9.08,4.85,9.08,10.84"/>
          </g>
        </g>
      </g>
    </g>
  </g>
</svg>